<?xml version="1.0" encoding="UTF-8"?>
<svg width="200" height="200" viewBox="0 0 200 200" xmlns="http://www.w3.org/2000/svg">
  <defs>
    <linearGradient id="eagleGradient" x1="0%" y1="0%" x2="100%" y2="100%">
      <stop offset="0%" stop-color="#1a237e" />
      <stop offset="100%" stop-color="#0d47a1" />
    </linearGradient>
  </defs>
  <rect width="200" height="200" rx="20" fill="url(#eagleGradient)" />
  <path d="M100,40 C70,40 45,65 45,95 C45,125 70,150 100,150 C130,150 155,125 155,95 C155,65 130,40 100,40 Z" fill="#ffffff" fill-opacity="0.1" />
  <path d="M100,50 L120,80 L150,90 L130,115 L135,145 L100,130 L65,145 L70,115 L50,90 L80,80 Z" fill="#ffc107" />
  <path d="M100,65 L110,85 L130,90 L115,105 L120,125 L100,115 L80,125 L85,105 L70,90 L90,85 Z" fill="#ffffff" />
  <text x="100" y="175" font-family="Arial, sans-serif" font-size="18" font-weight="bold" fill="#ffffff" text-anchor="middle">EAGLES GROUP LLC</text>
</svg>
